<?xml version="1.0" encoding="UTF-8"?>
<svg xmlns="http://www.w3.org/2000/svg" viewBox="-26.400 -26.400 52.800 52.800" width="900" height="700">
<path d="M22.000 0.000 L21.916 -1.917 L21.666 -3.820 L21.250 -5.694 L20.673 -7.524 L19.939 -9.298 L19.053 -11.000 L18.021 -12.619 L16.853 -14.141 L15.556 -15.556 L14.141 -16.853 L12.619 -18.021 L11.000 -19.053 L9.298 -19.939 L7.524 -20.673 L5.694 -21.250 L3.820 -21.666 L1.917 -21.916 L0.000 -22.000 L-1.917 -21.916 L-3.820 -21.666 L-5.694 -21.250 L-7.524 -20.673 L-9.298 -19.939 L-11.000 -19.053 L-12.619 -18.021 L-14.141 -16.853 L-15.556 -15.556 L-16.853 -14.141 L-18.021 -12.619 L-19.053 -11.000 L-19.939 -9.298 L-20.673 -7.524 L-21.250 -5.694 L-21.666 -3.820 L-21.916 -1.917 L-22.000 -0.000 L-21.916 1.917 L-21.666 3.820 L-21.250 5.694 L-20.673 7.524 L-19.939 9.298 L-19.053 11.000 L-18.021 12.619 L-16.853 14.141 L-15.556 15.556 L-14.141 16.853 L-12.619 18.021 L-11.000 19.053 L-9.298 19.939 L-7.524 20.673 L-5.694 21.250 L-3.820 21.666 L-1.917 21.916 L-0.000 22.000 L1.917 21.916 L3.820 21.666 L5.694 21.250 L7.524 20.673 L9.298 19.939 L11.000 19.053 L12.619 18.021 L14.141 16.853 L15.556 15.556 L16.853 14.141 L18.021 12.619 L19.053 11.000 L19.939 9.298 L20.673 7.524 L21.250 5.694 L21.666 3.820 L21.916 1.917 Z" fill="none" stroke="#e6f1ff" stroke-width="0.200" vector-effect="non-scaling-stroke" />
</svg>