<?xml version="1.0" encoding="UTF-8"?>
<svg xmlns="http://www.w3.org/2000/svg" viewBox="-29.728 -19.309 59.456 38.618" width="900" height="700">
<path d="M24.432 -8.893 L23.981 -9.841 L23.348 -10.716 L22.537 -11.508 L21.555 -12.213 L20.408 -12.825 L19.107 -13.339 L17.659 -13.752 L16.078 -14.060 L14.374 -14.262 L12.561 -14.354 L10.652 -14.338 L8.662 -14.212 L6.606 -13.978 L4.500 -13.638 L2.359 -13.194 L0.201 -12.649 L-1.959 -12.008 L-4.104 -11.276 L-6.218 -10.458 L-8.284 -9.561 L-10.288 -8.591 L-12.213 -7.555 L-14.045 -6.462 L-15.770 -5.319 L-17.376 -4.136 L-18.849 -2.922 L-20.178 -1.686 L-21.354 -0.436 L-22.368 0.817 L-23.211 2.063 L-23.877 3.294 L-24.362 4.500 L-24.662 5.671 L-24.774 6.799 L-24.697 7.876 L-24.432 8.893 L-23.981 9.841 L-23.348 10.716 L-22.537 11.508 L-21.555 12.213 L-20.408 12.825 L-19.107 13.339 L-17.659 13.752 L-16.078 14.060 L-14.374 14.262 L-12.561 14.354 L-10.652 14.338 L-8.662 14.212 L-6.606 13.978 L-4.500 13.638 L-2.359 13.194 L-0.201 12.649 L1.959 12.008 L4.104 11.276 L6.218 10.458 L8.284 9.561 L10.288 8.591 L12.213 7.555 L14.045 6.462 L15.770 5.319 L17.376 4.136 L18.849 2.922 L20.178 1.686 L21.354 0.436 L22.368 -0.817 L23.211 -2.063 L23.877 -3.294 L24.362 -4.500 L24.662 -5.671 L24.774 -6.799 L24.697 -7.876 Z" fill="none" stroke="#e6f1ff" stroke-width="0.200" vector-effect="non-scaling-stroke" />
</svg>