<?xml version="1.0" encoding="UTF-8"?>
<svg xmlns="http://www.w3.org/2000/svg" viewBox="-36.000 -26.822 72.000 47.822" width="900" height="700">
<path d="M-30.000 10.000 L-29.549 9.291 L-29.034 8.423 L-28.457 7.412 L-27.824 6.273 L-27.139 5.021 L-26.406 3.672 L-25.630 2.240 L-24.815 0.741 L-23.965 -0.811 L-23.084 -2.399 L-22.178 -4.009 L-21.250 -5.625 L-20.305 -7.233 L-19.346 -8.817 L-18.379 -10.361 L-17.407 -11.852 L-16.436 -13.273 L-15.469 -14.609 L-14.510 -15.846 L-13.565 -16.968 L-12.637 -17.959 L-11.730 -18.805 L-10.850 -19.490 L-10.000 -20.000 L-9.167 -20.361 L-8.333 -20.615 L-7.500 -20.767 L-6.667 -20.822 L-5.833 -20.786 L-5.000 -20.664 L-4.167 -20.462 L-3.333 -20.185 L-2.500 -19.839 L-1.667 -19.429 L-0.833 -18.960 L0.000 -18.438 L0.833 -17.868 L1.667 -17.255 L2.500 -16.606 L3.333 -15.926 L4.167 -15.219 L5.000 -14.492 L5.833 -13.750 L6.667 -12.998 L7.500 -12.241 L8.333 -11.486 L9.167 -10.737 L10.000 -10.000 L10.850 -9.225 L11.730 -8.362 L12.637 -7.422 L13.565 -6.412 L14.510 -5.341 L15.469 -4.219 L16.436 -3.053 L17.407 -1.852 L18.379 -0.625 L19.346 0.619 L20.305 1.872 L21.250 3.125 L22.178 4.369 L23.084 5.596 L23.965 6.797 L24.815 7.963 L25.630 9.086 L26.406 10.156 L27.139 11.166 L27.824 12.106 L28.457 12.969 L29.034 13.744 L29.549 14.424 L30.000 15.000" fill="none" stroke="#e6f1ff" stroke-width="0.200" vector-effect="non-scaling-stroke" />
</svg>