<svg xmlns="http://www.w3.org/2000/svg" width="1200" height="900" viewBox="0 0 1200 900">
  <style>
    .panel { fill: rgba(15, 23, 36, 0.9); stroke: #20324a; stroke-width: 2; rx: 14; }
    .title { fill: #eef4fb; font: 700 26px ui-sans-serif, system-ui, sans-serif; }
    .legend { fill: #d7e3f2; font: 500 17px ui-monospace, SFMono-Regular, Menlo, monospace; }
    .note { fill: #a9bbd0; font: 500 15px ui-sans-serif, system-ui, sans-serif; }
    .label { fill: #eef4fb; font: 600 22px ui-monospace, SFMono-Regular, Menlo, monospace; }
    .callout { stroke: #101820; stroke-width: 3; fill: none; }
    .edge-mark { stroke: #f97316; stroke-width: 10; stroke-linecap: round; fill: none; opacity: 0.95; }
    .face-mark { stroke: #22c55e; stroke-width: 28; stroke-linecap: round; fill: none; opacity: 0.3; }
    .swatch-a { fill: #f97316; stroke: #101820; stroke-width: 2; }
    .swatch-b { fill: #22c55e; stroke: #101820; stroke-width: 2; }
  </style>

  <image href="selection-ledger-fillet-edge-review.iso.png" x="0" y="0" width="1200" height="900" />

  <path d="M 544 336 C 624 286, 782 286, 864 336" class="edge-mark" />
  <path d="M 550 376 C 628 334, 778 334, 856 376" class="face-mark" />

  <rect x="24" y="24" width="636" height="180" class="panel" />
  <text x="44" y="62" class="title">Expected edge-derived labels</text>
  <circle cx="56" cy="92" r="10" class="swatch-a" />
  <text x="78" y="98" class="legend">A  seed edge  edge:body.main~cyl.h74080499fc506b52.1</text>
  <circle cx="56" cy="126" r="10" class="swatch-b" />
  <text x="78" y="132" class="legend">B  blend face  face:body.main~review-fillet.fillet.seed.1</text>
  <text x="44" y="164" class="note">Orange traces the visible front arc of the selected top edge.</text>
  <text x="44" y="188" class="note">Green bands the generated fillet face derived from that edge.</text>

  <path d="M 908 258 L 872 286 L 830 314" class="callout" />
  <rect x="906" y="220" width="232" height="48" class="panel" />
  <text x="926" y="251" class="label">A  selected seed edge</text>

  <path d="M 898 414 L 858 402 L 812 388" class="callout" />
  <rect x="898" y="414" width="238" height="48" class="panel" />
  <text x="918" y="445" class="label">B  fillet.seed.1</text>
</svg>
